<svg width="52" height="54" viewBox="0 0 52 54" fill="none" xmlns="http://www.w3.org/2000/svg">
<path fill-rule="evenodd" clip-rule="evenodd" d="M42.0572 5.27182C42.9955 3.96143 43.8625 1.96778 44.2217 0.294243C44.2909 -0.028324 44.3087 -0.0356497 44.84 0.0385384C45.7405 0.164339 46.0264 0.194456 46.0928 0.331137C46.128 0.403675 46.1014 0.506226 46.072 0.66902C45.7363 2.52977 44.6514 4.98879 43.4782 6.54802C42.6666 7.62653 41.37 8.78645 40.3934 9.30728L39.7025 9.67589L39.2425 9.41112C38.2866 8.86099 37.078 9.18146 36.604 10.1106C36.3037 10.6992 36.3146 11.2317 36.6396 11.8462C37.0082 12.5432 37.5203 12.8047 38.4039 12.7469C39.0638 12.7038 39.1197 12.675 39.6248 12.121C39.9274 11.7891 40.5031 11.3521 40.9682 11.1014C41.8959 10.6013 42.8085 9.94183 43.621 9.18425L44.1806 8.66249L46.4776 11.04C50.3922 15.0921 50.7137 15.5115 51.3619 17.4098L51.6662 18.3014V34.4125V50.5235L51.2319 51.4023C50.7088 52.4607 50.0356 53.1199 48.9545 53.632L48.1777 54H38.2356H28.2935L27.5167 53.632C26.4356 53.1199 25.7624 52.4607 25.2393 51.4023L24.805 50.5236V34.4125V18.3014L25.1093 17.4098C25.5303 16.177 26.126 15.1576 26.9755 14.2166C27.3723 13.7772 29.4183 11.6261 31.522 9.43658C35.0854 5.72811 35.4041 5.42752 36.1809 5.0446C37.8587 4.21714 39.6733 4.4147 41.1631 5.58694L41.5907 5.92335L42.0572 5.27182ZM25.7428 8.47958C26.1826 8.25446 27.6372 7.75805 29.0396 7.35443C30.4199 6.9571 31.5681 6.62825 31.591 6.62348C31.6682 6.60767 30.3004 8.0562 27.8107 10.6268C26.4478 12.0339 25.1195 13.469 24.8588 13.8159C24.237 14.6436 23.5344 16.1098 23.2079 17.2611L22.9459 18.1851L22.9137 34.1157C22.883 49.3086 22.8915 50.0857 23.0972 50.8945C23.2377 51.4474 23.2672 51.7251 23.1817 51.6923C23.1095 51.6645 19.8608 49.8005 15.9624 47.5498C8.28932 43.1201 8.04303 42.95 7.39174 41.6307C6.91184 40.6585 6.81067 39.2359 7.1508 38.2438C7.39778 37.5239 22.3003 11.6642 23.0168 10.7124C23.6144 9.91881 24.7523 8.98669 25.7428 8.47958ZM0.400965 29.9526C0.693764 29.2797 1.44355 28.5015 11.7077 18.2183C17.7539 12.1608 22.719 7.22292 22.7412 7.24513C22.7635 7.26734 18.951 13.898 14.2689 21.9798C6.41903 35.5296 5.40924 37.3507 5.13342 38.455L5.03702 38.8408L2.9301 36.7108C0.725625 34.4823 0.382011 34.0072 0.095608 32.7919C-0.104165 31.9444 0.0145594 30.8408 0.400965 29.9526ZM36.055 36.568H39.919C41.391 36.568 42.631 36.072 43.639 35.08C44.663 34.072 45.175 32.848 45.175 31.408C45.175 29.968 44.663 28.744 43.639 27.736C42.615 26.712 41.375 26.2 39.919 26.2H33.847V34.552H31.807V36.568H33.847V38.512H31.807V40.144H33.847V43H36.055V40.144H42.007V38.512H36.055V36.568ZM36.055 34.552V28.288H39.919C40.767 28.288 41.487 28.592 42.079 29.2C42.671 29.808 42.967 30.544 42.967 31.408C42.967 32.272 42.663 33.016 42.055 33.64C41.463 34.248 40.751 34.552 39.919 34.552H36.055Z" fill="#094FA4"/>
</svg>
