<svg width="54" height="39" viewBox="0 0 54 39" fill="none" xmlns="http://www.w3.org/2000/svg">
<path fill-rule="evenodd" clip-rule="evenodd" d="M2.98199 0.240606C2.77284 0.372302 2.03134 1.05765 1.3342 1.76354L0.0666721 3.04691L0.0333361 16.9123L0 30.7778L0.326642 31.166C0.506377 31.3795 0.863567 31.6126 1.12049 31.6839C1.37742 31.7553 2.64432 31.814 3.9358 31.8144L6.28377 31.8151L6.43625 32.7734C6.84174 35.3219 8.75697 37.3589 11.3147 37.9619C12.73 38.2956 14.1265 38.1197 15.5717 37.4254C16.4462 37.0055 17.8076 35.6801 18.2849 34.7843C18.6717 34.0583 19.0162 32.856 19.0162 32.2321V31.8151H27.0016H34.9871V32.2321C34.9871 32.4614 35.0745 32.9848 35.1814 33.3951C35.9745 36.4398 39.1989 38.5646 42.2437 38.0486C45.015 37.5789 47.1365 35.4797 47.5656 32.7822L47.7167 31.8329L50.3424 31.7923C52.7751 31.7548 52.9943 31.7322 53.3255 31.4861C54.0019 30.9834 53.9961 31.0398 53.9981 24.8944L54 19.1779L53.6385 18.6835C53.1172 17.9705 51.0022 15.971 50.7695 15.971C50.4957 15.971 50.4699 15.8962 49.1807 11.3445C48.5489 9.11368 47.9164 6.93455 47.7753 6.50194C47.4826 5.60491 46.9413 5.03681 46.1764 4.82437C45.8831 4.74287 43.9181 4.69115 41.1029 4.69077L36.5081 4.69001V2.90913C36.5081 1.5653 36.461 1.03712 36.3158 0.75649C35.9003 -0.0468693 36.9547 0.000155296 19.3711 0.000662308C3.89334 0.00104257 3.34957 0.00902867 2.98199 0.240606ZM45.1149 8.71441C45.2534 9.18505 45.7484 10.9104 46.2148 12.5487C46.6813 14.187 47.0898 15.5987 47.1226 15.6858C47.1698 15.8108 46.183 15.8441 42.4474 15.8438C37.9217 15.8434 37.6938 15.832 37.2927 15.5875C36.5653 15.1439 36.5081 14.8277 36.5081 11.243C36.5081 9.47468 36.5461 7.98977 36.5927 7.94338C36.639 7.89686 38.5189 7.85883 40.77 7.85883H44.863L45.1149 8.71441ZM13.9185 28.8429C15.3826 29.4535 16.2104 31.3389 15.6736 32.8405C14.8997 35.0059 12.0695 35.6229 10.4304 33.9837C9.55095 33.1043 9.2778 31.7041 9.76491 30.5719C10.0656 29.8729 10.802 29.1143 11.456 28.8297C11.9969 28.5943 13.3398 28.6015 13.9185 28.8429ZM42.5105 28.8206C43.1086 29.0705 43.8311 29.7435 44.1475 30.3454C44.506 31.0276 44.534 32.4304 44.2025 33.0963C43.379 34.7501 41.4093 35.4037 39.8349 34.5455C38.4541 33.793 37.8484 32.3006 38.305 30.7766C38.4999 30.1258 39.3441 29.1774 39.9889 28.8843C40.607 28.6036 41.9121 28.5705 42.5105 28.8206Z" fill="#094FA4"/>
</svg>
