<svg width="55" height="54" viewBox="0 0 55 54" fill="none" xmlns="http://www.w3.org/2000/svg">
<path fill-rule="evenodd" clip-rule="evenodd" d="M24.8661 0.0562506C15.7637 0.857214 7.84746 5.93969 3.4037 13.8358C-1.5208 22.5861 -1.06965 33.6947 4.54884 42.0323C7.34426 46.1807 11.4763 49.6665 15.9422 51.6433C23.31 54.9049 31.6167 54.7759 38.7989 51.2883C44.4476 48.5454 49.1412 43.7082 51.6426 38.0517C55.7608 28.7392 54.4278 18.2004 48.1144 10.1585C46.6324 8.27039 43.6781 5.59966 41.62 4.28699C38.2062 2.1099 34.2122 0.663997 30.278 0.1813C28.8551 0.00673741 26.1416 -0.0559027 24.8661 0.0562506ZM28.3062 10.189C28.5378 10.3457 28.8689 10.6767 29.042 10.9246L29.3568 11.3753L29.3881 18.6364L29.4195 25.8976L32.9707 29.4702C36.8478 33.3706 36.85 33.3736 36.7614 34.5987C36.7047 35.3825 36.3797 35.9379 35.6997 36.4127C35.3039 36.6892 35.1414 36.7275 34.3657 36.7275C33.591 36.7275 33.4266 36.6888 33.0283 36.4128C32.7785 36.2397 30.8324 34.3485 28.7036 32.2099C25.5045 28.9964 24.8098 28.2419 24.6997 27.8612C24.6031 27.5269 24.5761 25.2 24.6012 19.379L24.6358 11.3573L24.9812 10.8668C25.4991 10.1319 26.1795 9.81313 27.124 9.86345C27.6981 9.89396 27.9885 9.97399 28.3062 10.189Z" fill="#094FA4"/>
</svg>
