<svg width="54" height="54" viewBox="0 0 54 54" fill="none" xmlns="http://www.w3.org/2000/svg">
<path fill-rule="evenodd" clip-rule="evenodd" d="M25.8416 0.101151C24.8964 0.372199 24.295 0.786744 22.3254 2.52485C21.223 3.49765 20.2459 4.29316 20.154 4.29274C20.0621 4.29232 18.539 4.17796 16.7695 4.03869C12.8054 3.72657 12.261 3.78665 10.8901 4.68796C9.7375 5.44567 9.505 5.89368 8.2829 9.71159C7.72876 11.443 7.27537 12.8752 7.27537 12.8941C7.27537 12.9131 6.07679 13.6336 4.61175 14.4953C2.76262 15.583 1.78198 16.227 1.40496 16.6012C0.257126 17.7405 -0.251546 19.4645 0.119989 20.9562C0.187819 21.2288 0.753456 22.6953 1.37669 24.2153L2.51007 26.9787L1.40507 29.6531C0.797339 31.124 0.231808 32.5869 0.148366 32.904C-0.140571 34.0017 0.0257866 35.2552 0.601023 36.3129C1.1001 37.2307 1.98537 37.9126 4.94647 39.6596C6.46626 40.5563 7.73066 41.3239 7.75629 41.3654C7.78193 41.4069 8.09006 42.6452 8.44124 44.1171C8.80191 45.6291 9.20847 47.0688 9.37588 47.4268C9.93139 48.6146 10.9042 49.4653 12.2036 49.8999C13.0176 50.1721 13.4689 50.1728 16.8749 49.9071C18.3544 49.7917 19.7311 49.6975 19.9341 49.6978C20.2577 49.6983 20.5047 49.8757 21.9305 51.1312C22.8254 51.9192 23.7511 52.721 23.9876 52.913C25.4657 54.1131 27.4495 54.3381 29.1182 53.4949C29.5172 53.2933 30.4793 52.5345 31.7256 51.4385C33.5706 49.8161 33.7283 49.7016 34.1225 49.6998C34.3546 49.6987 35.7313 49.7925 37.1817 49.9081C38.6322 50.0238 40.1114 50.1186 40.4689 50.1188C42.2139 50.1202 43.8805 49.0488 44.62 47.4503C44.7929 47.0769 45.2022 45.6311 45.5685 44.1007C45.9229 42.6198 46.2458 41.3786 46.2861 41.3426C46.3264 41.3065 47.6173 40.5255 49.1548 39.6069C52.1187 37.8364 52.9076 37.2238 53.407 36.3055C53.9777 35.2558 54.1436 34.0002 53.8562 32.904C53.7732 32.5869 53.2061 31.124 52.5961 29.653L51.487 26.9785L52.6281 24.2116C53.2556 22.6896 53.8228 21.1943 53.8883 20.8886C54.1267 19.7756 53.9875 18.806 53.4323 17.7122C52.9224 16.7074 52.2824 16.2021 49.1453 14.3276L46.2349 12.5885L45.5473 9.77241C45.1692 8.22362 44.7486 6.72541 44.6129 6.44328C44.153 5.48769 43.0334 4.47277 42.0486 4.11883C41.0893 3.77398 40.5893 3.76511 37.2513 4.03341C35.4724 4.17627 33.9404 4.29327 33.8467 4.29337C33.753 4.29348 32.8748 3.5779 31.8951 2.70319C29.8152 0.846296 29.408 0.543888 28.602 0.258163C27.8577 -0.0057053 26.4862 -0.0837359 25.8416 0.101151ZM29.9442 9.82922C33.5629 10.4892 36.7018 12.1155 39.2341 14.6428C41.8405 17.2437 43.4729 20.366 44.1613 24.0666C44.4125 25.4174 44.4125 28.573 44.1613 29.9238C42.7857 37.3191 37.3161 42.7938 29.9278 44.1707C28.5783 44.4222 25.4256 44.4222 24.0761 44.1707C20.4134 43.4881 17.2552 41.8366 14.6781 39.256C12.1527 36.7272 10.5197 33.575 9.84341 29.9238C9.61787 28.706 9.58739 25.518 9.79024 24.3555C11.1743 16.4212 17.15 10.6802 25.0689 9.67706C26.0794 9.54898 28.8885 9.63673 29.9442 9.82922ZM25.5251 12.8052C23.1838 13.0952 20.9362 13.9251 18.9847 15.2202C17.983 15.885 15.915 17.9478 15.2691 18.9264C14.1403 20.6364 13.4166 22.3635 13.0159 24.3027C12.7468 25.6052 12.7412 28.3667 13.005 29.635C13.6215 32.5985 14.8302 34.8649 16.9266 36.9882C19.0263 39.1149 21.3716 40.3814 24.3647 41.0054C25.5942 41.2616 28.3782 41.2614 29.6646 41.0048C32.5461 40.4303 34.8949 39.1614 37.0258 37.0285C38.744 35.3087 39.7935 33.6355 40.4958 31.4963C41.0473 29.8162 41.1856 28.9139 41.1856 26.9952C41.1856 25.7369 41.1338 25.0037 40.9989 24.3555C40.5936 22.4074 39.8423 20.5955 38.7659 18.9704C38.072 17.9229 36.0284 15.887 34.9665 15.1852C33.3686 14.1293 31.5347 13.3636 29.7381 13.0021C28.9584 12.8452 26.2311 12.7177 25.5251 12.8052ZM35.6549 20.8724C36.1229 21.1115 36.4961 21.7198 36.4961 22.2437C36.4961 22.4226 36.4043 22.7451 36.2921 22.9606C36.0397 23.4458 26.5498 32.9296 26.0842 33.1621C25.6348 33.3863 25.1794 33.3747 24.7033 33.1266C24.2198 32.8745 17.909 26.543 17.6763 26.0766C17.0334 24.7869 18.4665 23.3525 19.7548 23.9963C19.9405 24.089 21.2911 25.3597 22.7561 26.8201L25.4199 29.4753L29.6657 25.2366C32.0009 22.9054 34.054 20.9238 34.228 20.8331C34.6632 20.6064 35.1609 20.6201 35.6549 20.8724Z" fill="#094FA4"/>
</svg>
